<svg xmlns="http://www.w3.org/2000/svg" viewBox="36 96 227 75" role="img" aria-label="Karur Vysya Bank">
<g>
	<path fill-rule="evenodd" clip-rule="evenodd" fill="#E2E42B" d="M41.88,144.66l12.1,0.1c0.21,0.55,0.37,1.53,0.54,2.15
		c2.56,9.66,10.73,17.33,20.87,19.25c6.23,1.18,12.83-0.26,17.48-2.93c3.41-1.96,6.27-4.54,8.5-7.59c0.46-0.64,1.93-3.08,2.13-3.13
		l154.77,0.02v-43.25H46.33c-1.25,0-2.68-0.07-3.9-0.01c-0.7,0.03-0.55,0.11-0.54,1.48V144.66L41.88,144.66z"/>
	<path fill-rule="evenodd" clip-rule="evenodd" fill="#00934C" d="M258.27,152.53l-154.77-0.02c-0.2,0.04-1.67,2.49-2.13,3.13
		c-2.23,3.05-5.09,5.62-8.5,7.59c-4.65,2.67-11.24,4.11-17.48,2.93c-10.14-1.92-18.31-9.59-20.87-19.25
		c-0.17-0.62-0.33-1.6-0.54-2.15l-12.1-0.1c-0.27,0.36-0.11,12.55-0.11,12.92c0,4.39,0,8.78,0,13.17h216.5V152.53L258.27,152.53z"/>
	<path d="M111.61,146.56V135.4h3.31v3.7l2.99-3.7h3.87l-3.71,4.12l4.19,7.05h-3.98l-2.54-4.47l-0.83,0.92v3.55H111.61L111.61,146.56
		z M127.89,142.88c-0.29,0.12-0.68,0.25-1.16,0.39c-0.76,0.22-1.14,0.51-1.14,0.87c0,0.23,0.07,0.41,0.23,0.54
		c0.15,0.13,0.36,0.2,0.64,0.2c0.51,0,0.88-0.13,1.11-0.38c0.23-0.25,0.35-0.66,0.35-1.21c0-0.12,0-0.2,0-0.26
		C127.91,142.98,127.9,142.93,127.89,142.88L127.89,142.88z M128.17,146.56l-0.19-0.79c-0.39,0.37-0.81,0.64-1.26,0.82
		c-0.45,0.18-0.96,0.27-1.52,0.27c-0.87,0-1.53-0.23-2.01-0.69c-0.47-0.46-0.71-1.1-0.71-1.94c0-0.81,0.23-1.42,0.7-1.8
		c0.46-0.39,1.35-0.67,2.64-0.85c0.16-0.03,0.39-0.05,0.66-0.08c0.97-0.11,1.45-0.38,1.45-0.81c0-0.24-0.09-0.41-0.27-0.52
		c-0.18-0.11-0.46-0.16-0.84-0.16c-0.31,0-0.56,0.07-0.73,0.2c-0.17,0.13-0.27,0.34-0.3,0.62h-2.98c0.01-0.92,0.37-1.62,1.06-2.1
		c0.69-0.47,1.71-0.71,3.05-0.71c0.63,0,1.21,0.06,1.75,0.19c0.53,0.13,0.95,0.3,1.24,0.51c0.36,0.26,0.62,0.56,0.76,0.89
		c0.15,0.33,0.22,0.81,0.22,1.42v4.59c0,0.15,0.03,0.29,0.08,0.4c0.06,0.12,0.14,0.22,0.25,0.29v0.24H128.17L128.17,146.56z
		 M132.68,146.56v-8.24h2.81v1.5c0.2-0.6,0.49-1.03,0.87-1.31c0.38-0.28,0.88-0.41,1.51-0.41h0.27v3.27
		c-0.11-0.01-0.22-0.02-0.33-0.03c-0.1-0.01-0.2-0.01-0.3-0.01c-0.62,0-1.07,0.15-1.36,0.45c-0.29,0.3-0.43,0.77-0.43,1.4v3.38
		H132.68L132.68,146.56z M147.49,138.32v8.24h-2.79v-1.21c-0.36,0.49-0.76,0.85-1.19,1.08c-0.44,0.24-0.94,0.35-1.49,0.35
		c-0.46,0-0.88-0.08-1.25-0.25c-0.37-0.16-0.68-0.41-0.93-0.74c-0.23-0.29-0.39-0.65-0.48-1.07c-0.09-0.42-0.14-1.13-0.14-2.13
		v-4.27h3.05v4.25c0,0.62,0.08,1.06,0.23,1.3c0.15,0.24,0.42,0.36,0.8,0.36c0.38,0,0.66-0.14,0.86-0.42
		c0.19-0.28,0.29-0.7,0.29-1.26v-4.24H147.49L147.49,138.32z M149.15,146.56v-8.24h2.81v1.5c0.2-0.6,0.49-1.03,0.87-1.31
		c0.38-0.28,0.88-0.41,1.51-0.41h0.27v3.27c-0.11-0.01-0.22-0.02-0.32-0.03c-0.1-0.01-0.2-0.01-0.3-0.01
		c-0.62,0-1.07,0.15-1.36,0.45c-0.29,0.3-0.43,0.77-0.43,1.4v3.38H149.15L149.15,146.56z M159.79,135.4h3.41l1.75,7.21l1.88-7.21
		h3.28l-3.5,11.16h-3.32L159.79,135.4L159.79,135.4z M171.08,149.8v-2.44h0.87c0.3,0,0.51-0.05,0.64-0.16
		c0.13-0.11,0.2-0.29,0.2-0.54c0-0.11-0.01-0.22-0.04-0.35c-0.03-0.13-0.07-0.28-0.12-0.45l-2.57-7.54h3.09l1.34,5l1.3-5h2.87
		l-2.48,8.19c-0.28,0.92-0.5,1.55-0.65,1.89c-0.15,0.34-0.32,0.6-0.49,0.78c-0.23,0.25-0.51,0.42-0.83,0.53
		c-0.32,0.1-0.85,0.16-1.58,0.16c-0.21,0-0.45,0-0.71-0.02C171.65,149.84,171.37,149.82,171.08,149.8L171.08,149.8z M179.06,143.97
		h2.96c0,0.35,0.08,0.61,0.25,0.78c0.17,0.17,0.42,0.26,0.75,0.26c0.32,0,0.57-0.06,0.74-0.17c0.17-0.12,0.26-0.29,0.26-0.51
		c0-0.37-0.38-0.64-1.13-0.82c-0.07-0.01-0.12-0.03-1.16-0.04c-1.43-0.33-2.37-0.68-2.81-1.06c-0.44-0.38-0.66-0.93-0.66-1.67
		c0-0.89,0.32-1.56,0.96-2.02c0.64-0.46,1.58-0.69,2.81-0.69c1.14,0,2.03,0.22,2.65,0.65c0.63,0.44,0.99,1.08,1.08,1.94h-2.75
		c-0.02-0.25-0.12-0.45-0.3-0.59c-0.18-0.15-0.4-0.22-0.67-0.22c-0.27,0-0.47,0.05-0.61,0.15c-0.14,0.1-0.21,0.24-0.21,0.43
		c0,0.33,0.35,0.57,1.04,0.73c0.18,0.04,0.32,0.07,0.41,0.09c1.39,0.34,2.3,0.71,2.72,1.09c0.42,0.39,0.63,0.95,0.63,1.7
		c0,0.95-0.34,1.66-1.03,2.14c-0.68,0.48-1.7,0.72-3.04,0.72c-1.24,0-2.19-0.24-2.84-0.72
		C179.48,145.66,179.13,144.93,179.06,143.97L179.06,143.97z M188.39,149.8v-2.44h0.87c0.29,0,0.51-0.05,0.64-0.16
		c0.13-0.11,0.2-0.29,0.2-0.54c0-0.11-0.01-0.22-0.04-0.35c-0.03-0.13-0.07-0.28-0.12-0.45l-2.57-7.54h3.09l1.34,5l1.3-5h2.87
		l-2.48,8.19c-0.28,0.92-0.5,1.55-0.65,1.89c-0.15,0.34-0.32,0.6-0.49,0.78c-0.23,0.25-0.51,0.42-0.83,0.53
		c-0.32,0.1-0.85,0.16-1.58,0.16c-0.21,0-0.45,0-0.71-0.02C188.96,149.84,188.68,149.82,188.39,149.8L188.39,149.8z M201.93,142.88
		c-0.29,0.12-0.68,0.25-1.16,0.39c-0.76,0.22-1.14,0.51-1.14,0.87c0,0.23,0.08,0.41,0.23,0.54c0.15,0.13,0.36,0.2,0.64,0.2
		c0.51,0,0.88-0.13,1.11-0.38c0.23-0.25,0.35-0.66,0.35-1.21c0-0.12,0-0.2,0-0.26C201.95,142.98,201.94,142.93,201.93,142.88
		L201.93,142.88z M202.21,146.56l-0.19-0.79c-0.39,0.37-0.81,0.64-1.26,0.82c-0.45,0.18-0.96,0.27-1.52,0.27
		c-0.86,0-1.53-0.23-2.01-0.69c-0.47-0.46-0.71-1.1-0.71-1.94c0-0.81,0.23-1.42,0.7-1.8c0.46-0.39,1.35-0.67,2.64-0.85
		c0.16-0.03,0.39-0.05,0.66-0.08c0.96-0.11,1.45-0.38,1.45-0.81c0-0.24-0.09-0.41-0.26-0.52c-0.18-0.11-0.46-0.16-0.84-0.16
		c-0.32,0-0.56,0.07-0.73,0.2c-0.17,0.13-0.27,0.34-0.3,0.62h-2.98c0.01-0.92,0.37-1.62,1.06-2.1c0.69-0.47,1.71-0.71,3.05-0.71
		c0.63,0,1.21,0.06,1.75,0.19c0.53,0.13,0.95,0.3,1.24,0.51c0.36,0.26,0.62,0.56,0.76,0.89c0.15,0.33,0.22,0.81,0.22,1.42v4.59
		c0,0.15,0.03,0.29,0.08,0.4c0.06,0.12,0.14,0.22,0.25,0.29v0.24H202.21L202.21,146.56z M214.85,143.95h1.55
		c0.51,0,0.88-0.08,1.09-0.24c0.22-0.16,0.32-0.43,0.32-0.79s-0.11-0.63-0.33-0.79c-0.22-0.16-0.59-0.24-1.11-0.24h-1.52V143.95
		L214.85,143.95z M214.85,139.85h1.37c0.46,0,0.79-0.07,0.98-0.22c0.19-0.15,0.28-0.39,0.28-0.74c0-0.37-0.1-0.62-0.3-0.76
		c-0.2-0.14-0.67-0.2-1.4-0.2h-0.92V139.85L214.85,139.85z M211.62,146.56V135.4h4.26c0.92,0,1.58,0.03,2,0.07
		c0.42,0.05,0.78,0.13,1.08,0.25c0.53,0.21,0.93,0.54,1.21,0.99c0.28,0.45,0.42,1,0.42,1.64c0,0.5-0.1,0.95-0.31,1.32
		c-0.21,0.38-0.52,0.69-0.94,0.93c0.55,0.21,0.96,0.53,1.22,0.95c0.26,0.43,0.39,0.98,0.39,1.65c0,0.66-0.13,1.24-0.39,1.73
		c-0.26,0.48-0.63,0.86-1.12,1.12c-0.33,0.18-0.71,0.31-1.13,0.39c-0.42,0.08-1.12,0.11-2.1,0.11H211.62L211.62,146.56z
		 M227.58,142.88c-0.29,0.12-0.68,0.25-1.16,0.39c-0.76,0.22-1.14,0.51-1.14,0.87c0,0.23,0.07,0.41,0.23,0.54
		c0.15,0.13,0.36,0.2,0.64,0.2c0.51,0,0.88-0.13,1.11-0.38c0.23-0.25,0.35-0.66,0.35-1.21c0-0.12,0-0.2,0-0.26
		C227.6,142.98,227.59,142.93,227.58,142.88L227.58,142.88z M227.86,146.56l-0.19-0.79c-0.39,0.37-0.81,0.64-1.26,0.82
		c-0.45,0.18-0.96,0.27-1.52,0.27c-0.86,0-1.53-0.23-2.01-0.69c-0.47-0.46-0.71-1.1-0.71-1.94c0-0.81,0.23-1.42,0.7-1.8
		c0.46-0.39,1.35-0.67,2.64-0.85c0.16-0.03,0.39-0.05,0.66-0.08c0.97-0.11,1.45-0.38,1.45-0.81c0-0.24-0.09-0.41-0.27-0.52
		c-0.17-0.11-0.46-0.16-0.84-0.16c-0.31,0-0.56,0.07-0.73,0.2c-0.17,0.13-0.27,0.34-0.3,0.62h-2.97c0.01-0.92,0.37-1.62,1.06-2.1
		c0.69-0.47,1.71-0.71,3.05-0.71c0.63,0,1.21,0.06,1.75,0.19c0.53,0.13,0.95,0.3,1.24,0.51c0.36,0.26,0.62,0.56,0.76,0.89
		c0.15,0.33,0.22,0.81,0.22,1.42v4.59c0,0.15,0.03,0.29,0.09,0.4c0.06,0.12,0.14,0.22,0.25,0.29v0.24H227.86L227.86,146.56z
		 M232.36,146.56v-8.24h2.77v1.21c0.36-0.48,0.76-0.84,1.19-1.07c0.44-0.24,0.94-0.35,1.49-0.35c0.46,0,0.88,0.08,1.25,0.25
		c0.37,0.17,0.68,0.41,0.93,0.74c0.23,0.3,0.4,0.66,0.49,1.09c0.1,0.43,0.14,1.13,0.14,2.1v4.28h-3.05v-4.27
		c0-0.63-0.08-1.06-0.23-1.29c-0.15-0.24-0.42-0.35-0.8-0.35c-0.39,0-0.67,0.14-0.86,0.41c-0.19,0.28-0.28,0.69-0.28,1.25v4.25
		H232.36L232.36,146.56z M242.23,146.56V135.4h3.05v5.45l2.01-2.52h3.42l-2.85,3.04l3.24,5.2h-3.63l-1.67-2.95l-0.52,0.58v2.37
		H242.23L242.23,146.56z"/>
	<path fill-rule="evenodd" clip-rule="evenodd" d="M91.22,139.5c1.04-0.49,2.67,0.09,3.11,0.69c0.61,0.83,0.63,2.48-0.16,3.21
		c-0.62,0.56-2.66,1.01-2.99,0C91.01,142.85,91.05,140.04,91.22,139.5L91.22,139.5z M91.81,134.78c2.4-0.51,2.97,3.18,1.46,3.76
		c-0.67,0.26-2.13,0.49-2.17-0.99C91.08,136.67,90.82,134.99,91.81,134.78L91.81,134.78z M87.47,134.24c-0.19,0.91,1.22,0,1.39,1.72
		l0.02,6.54c-0.02,0.55-0.06,1.01-0.41,1.29c-0.4,0.34-0.96,0.27-0.61,0.84c0.42,0.27,1.41,0,1.99,0c1.94-0.01,4.33,0.39,6.07-0.71
		c0.79-0.5,1.46-1.65,1.18-3.15c-0.25-1.34-1.27-1.76-2.71-1.9c0.51-0.29,1.8-0.51,1.95-1.99c0.3-2.88-3.03-2.9-4.94-2.76
		c-0.68,0.05-1.31,0.1-1.99,0.08C88.41,134.18,87.9,133.99,87.47,134.24L87.47,134.24z"/>
	<path fill-rule="evenodd" clip-rule="evenodd" d="M65.99,136.87c0,0.98,0.2,6.06-0.25,6.73c-0.18,0.27-0.27,0.26-0.56,0.45
		c-0.08,0.05-0.15,0.02-0.24,0.21c-0.43,0.87,1.44,0.32,2.37,0.33c0.65,0.01,1.87,0.34,2.33,0.03c0.4-0.62-0.53-0.57-0.93-0.85
		c-0.66-0.47-0.49-1.82-0.49-2.86c0-0.77,0.37-1.08,0.87-1.31c0.66,0.62,2.21,3.36,2.96,4.39c0.63,0.86,0.76,0.66,2.71,0.68
		c0.38,0,0.59-0.02,0.69-0.16c0.15-0.53-0.07-0.44-0.48-0.66c-0.32-0.17-0.57-0.45-0.75-0.71c-0.5-0.72-3.45-4.99-3.4-5.26
		l2.04-1.91c0.58-0.52,1.06-0.84,1.76-1.15c0.44-0.2,0.43-0.1,0.47-0.54c-0.35-0.26-1.37-0.11-2.12-0.11
		c-0.54,0-1.35-0.21-1.76,0.11c0.08,0.63,0.36,0.31,0.85,0.68c0.05,0.78-0.99,1.64-1.66,2.22l-2.12,1.72
		c-0.09-0.7-0.21-3.48,0.19-3.91c0.31-0.34,0.8-0.18,0.78-0.77c-0.47-0.33-1.43-0.06-2.05-0.05c-0.68,0.01-3.34-0.41-2.56,0.41
		C65.16,135.14,65.99,134.17,65.99,136.87L65.99,136.87z"/>
	<path fill-rule="evenodd" clip-rule="evenodd" d="M81.41,144.93c0.73-0.22,1.11-1.76,1.46-2.52l3.11-6.98
		c0.4-0.7,0.88-0.53,0.88-1.26c-0.58-0.07-1.18,0.05-1.78,0.04c-0.54-0.01-1.34-0.25-1.76,0.08c0.09,0.89,1.32,0.18,1.44,1.36
		c0.07,0.66-0.42,1.57-0.65,2.16c-0.41,1.01-1.19,3.16-1.65,3.91c-0.46-0.14-0.39-0.33-0.58-0.81l-1.97-4.76
		c-0.63-1.61,0.59-0.93,0.65-1.86c-0.34-0.24-0.35-0.18-1.14-0.12c-1.44,0.1-3.64-0.25-3.36,0.38c0.12,0.28,0.83,0.25,1.31,1.25
		C78.07,137.26,80.82,144.51,81.41,144.93L81.41,144.93z"/>
	<path fill-rule="evenodd" clip-rule="evenodd" fill="#00934C" d="M103.65,145.81c0.05,1.23-3.29,6.78-4.88,8.22
		c-1.02,0.92-0.89,1.09-2.31,2.16c-3.7,2.81-7.63,4.68-12.63,4.94c-10.81,0.57-18.64-6.2-21.63-13.58
		c-2.79-6.88-2.08-15.03,2.1-21.16c0.62-0.91,1.15-1.72,1.89-2.48c2.48-2.53,3.9-3.93,7.64-5.66c5.66-2.61,12.56-2.55,18.21,0.05
		c1.1,0.51,1.95,1.12,2.92,1.57c-0.98-1.17-4.78-2.92-6.37-3.48c-12.89-4.52-26.84,2.52-31.12,15.55
		c-3.47,10.58,0.6,22.11,9.29,27.86c8.57,5.67,19.53,5.56,27.86-0.66l2.72-2.31C99.81,154.49,103.38,148.79,103.65,145.81
		L103.65,145.81z"/>
	<path fill-rule="evenodd" clip-rule="evenodd" fill="#00934C" d="M71.5,122.6c0.47-0.19,1.72-0.96,3.1-1.54
		c1.1-0.46,2.29-0.79,3.51-1.05c2.63-0.56,5.66-0.48,8.24,0.12c14.15,3.29,19.81,20.01,11.62,31.38c-0.68,0.95-1.99,2.31-2.14,2.61
		c0.66-0.42,0.83-0.66,1.36-1.15c7.26-6.81,8.09-18.63,1.9-26.83c-4.63-6.12-12.87-9.18-21-6.95c-1.98,0.54-4.18,1.59-5.83,2.75
		L71.5,122.6L71.5,122.6z"/>
	<path fill-rule="evenodd" clip-rule="evenodd" fill="#FBFDFF" d="M118.43,165.19c0.78,0.26,0.93,0.13,1.17-0.52
		c0.38-1.07,1.04-2.96,1.74-3.64c0.27-0.26,0.97-0.61,1.06,0.16c0.08,0.72-1.2,3.19-1.17,3.99c0.4,0.19,0.56,0.14,0.98,0.09
		c0.37-0.9,1.25-3.9,2.37-4.46c0.17-0.08,0.14-0.09,0.35-0.09c1.48,0.04-1.06,3.17-0.49,4.56c0.72,0.18,1.08,0.02,1.55-0.44
		c0.16-0.15,0.7-0.6,0.76-0.8c0.08-0.29,0.08-0.09-0.04-0.29c-0.33,0.03-0.25,0.63-1.11,0.6c-0.09-1.13,1.4-3.26,0.88-4.04
		c-0.38-0.57-1.34-0.25-1.8,0.03c-0.39,0.24-0.95,0.83-1.27,1.15c0.11-0.97,0.01-1.84-1.29-1.39c-0.76,0.26-1.13,0.94-1.62,1.42
		c0.06-0.56,0.29-0.99-0.12-1.35c-0.74-0.57-1.8,0.78-1.84,1.42c0.59-0.02,0.04-0.02,0.43-0.28c0.3-0.21,0.05-0.17,0.51-0.1
		C119.76,162.39,118.29,164.33,118.43,165.19L118.43,165.19z"/>
	<path fill-rule="evenodd" clip-rule="evenodd" fill="#EAF0EE" d="M162.08,163.96c-1.13,0.71-2.17,0.22-1.73-1.31
		c0.32-1.14,1.15-1.84,1.39-2.65c-0.61,0.01-1.26-0.02-1.85,0c-1.55,0.04-2.43,3.28-0.74,2.48c0.18-1.06-0.34-0.46-0.3-1.23
		c0.39-0.47,1.18-0.32,1.9-0.32c-0.43,0.97-1.67,2.04-1.39,3.51c0.21,1.09,1.49,1.45,2.83,0.06c0.75,1.84,2.3,0.7,3.21-0.53
		c0.9-1.22,2.04-4.49-0.02-3.85c-0.34,1.22,0.38,0.64,0.42,1.64c0.04,0.85-0.8,2.16-1.57,2.49c-0.68,0.29-1.03,0.06-1.31-0.46
		c0.29-0.68,2.2-2.6,1.07-3.72C162.52,159.79,162.11,162.5,162.08,163.96L162.08,163.96z"/>
	<path fill-rule="evenodd" clip-rule="evenodd" fill="#FBFDFF" d="M241.69,162.34c0.31-0.61,0.59-0.88,1.08-1.23
		c1.77-1.23,2.4,0.42,0.87,1C243.07,162.33,242.35,162.35,241.69,162.34L241.69,162.34z M243.4,156.32l-2.25,0.47
		c0.1,0.33-0.06,0.12,0.28,0.29c0.14,0.07,0.33,0.08,0.45,0.11c0.19,1.41-2,6.91-2.09,8.07c1.43,0.2,0.83-0.12,1.8-2.59
		c0.86,0.27,0.81,1.83,1.45,2.46c0.45,0.44,1.04,0.29,1.45-0.02c0.15-0.12,0.41-0.36,0.53-0.48c0.2-0.22,0.11-0.05,0.18-0.26
		c0.18-0.53,0.06-0.15-0.01-0.32c-0.32,0.08-0.41,0.46-1.03,0.55c-0.38-0.09-0.84-1.28-1.32-2.02c1.24-0.08,3.34-0.88,2.43-2.18
		c-0.95-1.36-2.95,0.65-3.29,0.98L243.4,156.32L243.4,156.32z"/>
	<path fill-rule="evenodd" clip-rule="evenodd" fill="#FBFDFF" d="M219.11,160.91c0.38,1.59-1.85,4.61-2.87,3.72
		C215.43,163.91,217.6,160.42,219.11,160.91L219.11,160.91z M218.22,156.3l-2.19,0.52c0.1,0.39-0.07,0.07,0.7,0.45
		c0.17,1.86-2.69,7.12-1.4,7.96c1.62,1.05,5.91-2.44,5-4.62c-0.71-1.7-3.29,0.63-3.89,1.64L218.22,156.3L218.22,156.3z"/>
	<path fill-rule="evenodd" clip-rule="evenodd" fill="#FBFDFF" d="M110.61,163.28c-0.45,0.05-0.41,0.16-0.71,1.5
		c0.98,0.79,2.86,0.85,3.87,0.17c2.16-1.46,0.11-3.64-0.82-4.79c-1.39-1.71-0.25-2.86,0.99-2.71c1.2,0.15,0.62,1.12,1.12,1.49
		c0.37-0.15,0.46-1,0.53-1.35c-1.25-0.62-2.57-1.02-3.71,0.03c-1.24,1.15-0.67,2.49,0.09,3.53c0.44,0.6,2.03,2,1.29,3.16
		c-0.57,0.9-2.08,0.81-2.45,0.14c-0.19-0.35-0.11-0.48-0.15-0.9c0-0.03-0.01-0.07-0.01-0.1L110.61,163.28L110.61,163.28z"/>
	<path fill-rule="evenodd" clip-rule="evenodd" fill="#FBFDFF" d="M232.42,165.25c0.51-1.29,1.38-3.91,2.31-4.43
		c1.37-0.76,0.45,1.41,0.27,1.87c-0.31,0.81-0.78,1.72-0.51,2.57c1.03,0.38,2.52-0.89,2.42-1.56c-0.42-0.04-0.24-0.01-0.57,0.34
		c-0.59,0.62-0.62,0.18-0.62,0.17c-0.31-1.09,1.69-2.87,0.61-4.15c-0.91-0.15-1.3,0.09-1.84,0.52c-0.24,0.19-0.86,0.83-1.02,1.11
		c0.05-0.59,0.37-1.14-0.08-1.52c-0.73-0.6-1.84,0.94-1.8,1.38c0.62,0.15,0.04-0.41,0.94-0.37c0.34,1.18-1.22,3.28-1.04,3.96
		C231.85,165.36,231.94,165.31,232.42,165.25L232.42,165.25z"/>
	<path fill-rule="evenodd" clip-rule="evenodd" fill="#FBFDFF" d="M181.79,160.08c-0.43,0.73,0.7,2.61-1.35,4.6
		c-0.06-1.3,0-3.19-0.62-4.21c-0.79-1.28-2.32,0.31-2.3,1.26c0,0.02,0.02,0.09,0.02,0.08c0-0.01,0.01,0.05,0.02,0.08
		c0.35-0.12,0.22-0.18,0.46-0.57c1.31-2.02,2.29,5.12,0.37,5.91c-0.61,0.25-0.81-0.29-1.28,0.03c-0.54,0.37-0.09,1.58,1.42,0.42
		c0.52-0.4,1.1-1.18,1.53-1.72C180.89,164.9,184.55,159.46,181.79,160.08L181.79,160.08z"/>
	<path fill-rule="evenodd" clip-rule="evenodd" fill="#FBFDFF" d="M170.69,164.31c-0.53-1.33,1.19-3.78,2.48-3.3
		c0.19,0.61-0.52,1.61-0.84,2.07C171.95,163.62,171.44,164.43,170.69,164.31L170.69,164.31z M173.43,164.25
		c-0.08-1.37,1.32-3.41,1.33-4.37c-1.15,0-0.35,0.25-1.2,0.41c-0.07,0.01-0.31,0.02-0.41,0.03c-0.54,0.06-1.05,0.28-1.44,0.54
		c-2.63,1.71-2.95,5.36-0.86,4.3c0.74-0.37,1.43-1.51,1.94-2.19c-0.17,0.78-0.73,1.61-0.22,2.27c0.52,0.39,1.55-0.76,1.77-1.05
		c0.38-0.51,0.11-0.57,0.1-0.57C174.06,163.75,174.16,164.18,173.43,164.25L173.43,164.25z"/>
	<path fill-rule="evenodd" clip-rule="evenodd" fill="#FBFDFF" d="M224.42,164.32c-0.52-1.35,1.23-3.82,2.47-3.29
		c0.2,0.65-0.51,1.58-0.84,2.05C225.68,163.6,225.22,164.43,224.42,164.32L224.42,164.32z M227.16,164.25
		c-0.09-1.39,1.33-3.44,1.34-4.37c-0.75,0-0.36-0.07-0.81,0.23c-0.28,0.19,0.11,0.08-0.4,0.18c-0.07,0.01-0.31,0.02-0.42,0.04
		c-1.41,0.15-2.81,1.51-3.37,2.75c-0.7,1.53-0.19,4.45,3-0.09c-0.15,0.77-0.73,1.61-0.21,2.27c0.52,0.38,1.49-0.68,1.77-1.05
		l0.1-0.57C227.79,163.76,227.87,164.17,227.16,164.25L227.16,164.25z"/>
	<path fill-rule="evenodd" clip-rule="evenodd" fill="#FBFDFF" d="M132.69,161.03c2.27-0.86-0.68,2.94-0.95,3.13
		C130.14,165.32,130.93,161.7,132.69,161.03L132.69,161.03z M133.74,164.19c-0.11-1.23,1.28-3.33,1.35-4.3
		c-0.7-0.01-0.64-0.1-0.89,0.42c-3.5-0.07-5.36,4.39-3.97,4.98c1.19,0.5,2.46-1.88,2.82-2.19c-0.19,0.92-0.61,1.28-0.27,2.16
		c0.91,0.21,1.4-0.5,1.87-1.1c0.29-0.37,0.31-0.3,0.13-0.57C134.37,163.89,134.41,164.32,133.74,164.19L133.74,164.19z"/>
	<path fill-rule="evenodd" clip-rule="evenodd" fill="#FBFDFF" d="M200.84,164.91c-0.68-1.19,0.46-5.16,1.8-4.4
		c0.74,0.42,0.26,2.21-0.01,2.91C202.27,164.35,201.98,165.15,200.84,164.91L200.84,164.91z M204.11,162.76
		c0.83-3.7-3.82-3.55-4.6-0.15C198.68,166.28,203.31,166.31,204.11,162.76L204.11,162.76z"/>
	<path fill-rule="evenodd" clip-rule="evenodd" fill="#FBFDFF" d="M147.23,160.38c0.17-1.08,0.9-1.67-0.7-1.47l-0.42,1.47l-0.98,0
		c0.04,0.64,0.1,0.43,0.83,0.43c-0.15,0.76-1.06,3.45-0.99,3.94c0.17,1.19,2.22,0.68,2.79-0.82c-0.45-0.09-0.37,0.06-0.68,0.36
		c-0.42,0.4-0.89,0.37-0.84-0.38c0-0.01,0.68-3,1-3.1c0.44,0,0.93,0.13,1.08-0.19C148.35,160.26,148.09,160.38,147.23,160.38
		L147.23,160.38z"/>
	<path fill-rule="evenodd" clip-rule="evenodd" fill="#FBFDFF" d="M194.45,160.38c-1.21,0-1.49,0.41-0.13,0.43
		c-0.26,1.23-1.3,3.41-0.81,4.44c1.26,0.41,2.29-0.61,2.48-1.04c0.2-0.46,0.1-0.17-0.02-0.35c-0.28,0.06-0.58,0.84-1.21,0.62
		c-0.47-0.35,0.47-2.7,0.67-3.66c1.43-0.02,1.22,0.19,1.26-0.44l-1.1-0.01l0.36-1.44C194.58,158.68,194.8,159.27,194.45,160.38
		L194.45,160.38z"/>
	<path fill-rule="evenodd" clip-rule="evenodd" fill="#FBFDFF" d="M139.97,162.02c0.06-0.6,0.67-2.02-0.38-1.99
		c-0.61,0.02-1.41,0.96-1.44,1.57c0.58-0.07,0.05-0.06,0.44-0.31c0.34-0.22,0.13-0.18,0.49-0.05c0.33,1.07-1.14,3-1.04,4l0.91-0.01
		c0.34-0.49,0.82-1.94,1.13-2.65c1-2.36,1.1-1.07,1.92-1.39c0.42-0.2,0.44-0.5,0.3-1.08c-0.82-0.23-1.19,0.06-1.54,0.56
		C140.58,160.95,140.07,161.71,139.97,162.02L139.97,162.02z"/>
</g>
</svg>
