<svg xmlns="http://www.w3.org/2000/svg" viewBox="0 0 1679 280" role="img" aria-label="HDFC Bank"><path fill="#004c8f" d="M.25.3h1678.14v279.47H.25z"/><path fill="#004c8f" d="M279.95.3h1398.44v279.47H279.95z"/><g fill="#fff"><path d="M368.89 206.15V73.92h43.53v44.63h40.79V73.92h43.61v132.23h-43.61v-51.3h-40.79v51.3z"/><path fill-rule="evenodd" d="M582.51 206.15h-59.39V73.92h60.52c13.64 0 25.39 2.11 35.23 6.4 9.88 4.28 17.62 11.56 23.32 21.61 5.62 10.26 8.4 22.56 8.4 37.1 0 9.91-1.23 18.66-3.8 26.43-2.49 7.8-5.69 14.16-9.35 19.22-3.69 4.88-7.7 8.82-12.13 11.74-4.36 2.84-10.06 5.23-17.06 7.02-6.96 1.87-15.47 2.71-25.74 2.71m-16.81-99.37v66.51l10.98-.07c8.08 0 14.2-1.12 18.32-3.47 4.11-2.32 7.31-6.08 9.53-11.32 2.28-5.23 3.34-11.7 3.34-19.43 0-4.74-.53-9.24-1.52-13.49-1.09-4.29-2.56-7.7-4.39-10.41-2.01-2.74-4.29-4.56-7.1-5.79-3.8-1.69-9.75-2.53-17.87-2.53z"/><path d="M670.53 206.15V73.92h103.24v32.61H713.5v21.19h48.21v31.73H713.5v46.7zM919.57 124.49h-41.11c-.77-6.57-3.16-11.78-7.14-15.5-4.01-3.65-9.04-5.45-15.22-5.45-7.71 0-13.96 2.99-18.78 8.89-4.86 5.98-7.28 15.64-7.28 28.92 0 9.28 1.09 16.24 3.09 20.98 2.08 4.89 5 8.4 8.62 10.75 3.73 2.36 8.26 3.45 13.85 3.45 6.68 0 12.03-1.69 15.93-5.55 4.01-3.62 6.33-9.04 7.11-16.27h41.84c-.91 8.22-2.56 15.11-4.96 20.73-2.28 5.59-6.36 11.14-11.88 16.72-5.59 5.66-12.27 10.02-19.98 13.04-7.7 3.06-16.59 4.5-26.79 4.5-10.06 0-19.45-1.44-27.92-4.39-8.58-3.03-15.83-7.31-21.59-12.69-5.88-5.59-10.45-11.84-13.72-18.9-4.71-9.95-6.92-20.88-6.92-33.07 0-10.19 1.65-19.85 4.99-28.71 3.34-8.78 7.95-16.27 13.82-22.31 5.91-6.01 12.34-10.51 19.52-13.53 9.07-3.87 19.05-5.73 30.13-5.73 9.64 0 18.57 1.41 27.01 4.25 8.4 2.85 15.29 7 20.67 12.51 5.46 5.52 9.64 11.85 12.56 19.05 2.11 5.02 3.45 11.1 4.15 18.31"/><path fill-rule="evenodd" d="M1003.05 206.15V73.92h65.65c16.35 0 28.42 2.39 36.15 7.1 10.02 6.11 15.09 15.11 15.09 26.88 0 11.39-5.73 20.73-17.23 27.97 6.78 1.93 12.16 5.48 16.17 10.86 4.01 5.34 5.98 11.91 5.98 19.89 0 5.59-.91 10.79-2.74 15.39-1.83 4.57-4.33 8.36-7.7 11.49-2.18 2.32-5.49 4.43-9.78 6.68-4.39 2.03-8.72 3.58-12.9 4.56-4.26.92-11.5 1.41-21.81 1.41zm42.13-102.47v23.3h16.38c6.72 0 11.4-1.02 14.14-3.23 2.57-2.11 3.9-4.89 3.9-8.26 0-2.63-.8-4.92-2.35-6.89-1.51-1.89-3.62-3.33-6.16-4.07-1.97-.56-5.94-.85-12.09-.85zm0 47.09v25.05h17.76c8.4 0 14.06-.98 16.77-3.33 2.85-2.22 4.25-5.38 4.25-9.39 0-3.97-1.4-6.92-4-9.06-2.82-2.22-8.41-3.27-17.02-3.27zM1137.31 206.15l47.51-132.23h44.2l47.47 132.23h-43.29l-5.06-17.36h-43.32l-5.03 17.36zm69.13-92.56-13.64 48.11h27.67z"/><path d="M1294.78 206.15V73.92h40.54l45.75 70.81V73.92h41.71v132.23h-41.43l-44.76-69.05v69.05zM1451.79 206.15V73.92h42.16v43.61l39.35-43.61h51.13l-48.49 49.79 53.52 82.44h-52.11l-31.83-52.67-11.57 11.42v41.25z"/></g><path fill="#ed232a" d="M.25.3h279.67v279.47H.25z"/><g fill="#fff"><path d="M49.2 49.22H231v181.67H49.2z"/><path d="M126.11.3h27.95v279.47h-27.95z"/><path d="M.25 126.1h279.67v27.94H.25z"/></g><path fill="#004c8f" d="M98.15 98.13h83.9v83.84h-83.9z"/></svg>
